<svg xmlns="http://www.w3.org/2000/svg" viewBox="0 0 500 500"><g id="freepik--background-complete--inject-15"><polygon points="34.18 290.59 113.54 290.12 192.9 289.85 192.18 290.4 198.03 267.45 198.85 264.2 199.62 267.46 211.11 316.1 209.36 316.18 220.56 237.63 221.38 231.88 222.49 237.58 233.5 294.15 231.64 294.04 240.48 267.05 241.4 264.26 242.25 267.07 253.74 304.84 252.04 304.86 256.2 290.58 256.38 289.95 257.03 289.96 361.43 290.26 465.82 290.82 361.43 291.39 257.03 291.69 257.87 291.06 253.74 305.35 252.92 308.2 252.05 305.36 240.47 267.61 242.24 267.63 233.47 294.63 232.32 298.15 231.61 294.52 220.57 237.96 222.5 237.91 211.13 316.43 210.45 321.11 209.38 316.51 198.02 267.84 199.62 267.86 193.62 290.77 193.47 291.34 192.9 291.33 113.54 291.06 34.18 290.59" style="fill:#ebebeb"></polygon><path d="M99.45,130.54l-63.95-.1s3.19-4.13,6.69-4.65c0,0,6.85-20.28,18.27-20.41,10.61-.12,14.84,12.51,14.84,12.51s4.93-5.65,9.62-3.06,7.34,10,7.34,10S97.54,127.69,99.45,130.54Z" style="fill:#ebebeb"></path><path d="M383.63,95.76l80.87.12s0-5.16-11.14-6.19c0,0-10.13-22.6-25.66-19.59C418,72,413.06,85.24,413.06,85.24s-7.29-10.46-13.14-8.44-9.34,13.13-9.34,13.13S384.55,92.84,383.63,95.76Z" style="fill:#ebebeb"></path><path d="M147.33,66.06l55,.09s-5.18-4.84-7.49-4.84-9-16.23-17.61-15.55S164,58.5,164,58.5,153.58,55.21,147.33,66.06Z" style="fill:#ebebeb"></path><path d="M305,158.61l47,.07s-2.33-3-4.91-3.43c0,0-5-14.93-13.38-15.05-7.8-.11-10.95,9.16-10.95,9.16s-3.6-4.16-7.06-2.27-5.42,7.34-5.42,7.34S306.39,156.52,305,158.61Z" style="fill:#ebebeb"></path><path d="M405.72,236.73s-34.19,76.13,21.75,76.13,19.68-78.72,19.68-78.72,13-5.7-2.07-48.17-21.73-42.47-28-42.47c-7.88,0-15.22,18.39-9.84,46.61C407.27,190.11,387.59,225.33,405.72,236.73Z" style="fill:#ebebeb"></path><polygon points="432.44 363.36 427.04 248.66 421.65 363.36 432.44 363.36" style="fill:#a6a6a6"></polygon><polygon points="429.24 296.75 408.91 273 424.85 299.89 429.24 296.75" style="fill:#a6a6a6"></polygon><path d="M84.69,259.65S112.68,322,66.87,322s-16.12-64.48-16.12-64.48-10.6-4.66,1.7-39.45,17.8-34.78,22.91-34.78c6.45,0,12.46,15.06,8,38.18C83.41,221.48,99.53,250.32,84.69,259.65Z" style="fill:#ebebeb"></path><polygon points="62.81 363.36 67.22 269.43 71.64 363.36 62.81 363.36" style="fill:#a6a6a6"></polygon><polygon points="65.43 308.81 82.08 289.36 69.02 311.38 65.43 308.81" style="fill:#a6a6a6"></polygon><path d="M399.64,244.91s15.95-6.33,28.61,15.7c13,22.59-3.29,37.48-16.2,28.62,0,0-10.13,21.26-30.39,16.2s-23.55-21.27-23.55-21.27-18,1.27-18.48-12.15,12.66-25.32,12.66-25.32.76-33.43,22.53-33.17S399.64,244.91,399.64,244.91Z" style="fill:#dbdbdb"></path><polygon points="384.83 363.36 380.27 263.9 375.71 363.36 384.83 363.36" style="fill:#a6a6a6"></polygon><polygon points="382.22 300.08 395.6 273.38 378.31 297.74 382.22 300.08" style="fill:#a6a6a6"></polygon></g><g id="freepik--Shadow--inject-15"><ellipse cx="287.4" cy="444.62" rx="116.89" ry="15.51" style="fill:#ebebeb"></ellipse></g><g id="freepik--Plants--inject-15"><path d="M140.93,363.36h-57s.13-8.48,5.73-10.74a7.64,7.64,0,0,1,8.94,2.15s2.28-15.6,12.72-15.6,15.44,13.45,15.44,13.45,2.34-4.06,8.13-3.31S140.93,363.36,140.93,363.36Z" style="fill:#455a64"></path><path d="M458.4,363.36s-1.75-8.15-5.24-9.41-5.61,2.4-5.61,2.4-.82-7.79-5.77-10.12-8.66,2.44-8.66,2.44-3.8-9.88-10.58-9.88-10.2,14.46-10.2,14.46-4-4.31-8.11-1.87-4.1,12-4.1,12Z" style="fill:#37474f"></path><path d="M94.15,363.36H41.6s1.73-7.41,5.22-7.94,5.1,2.92,5.1,2.92-.16-10.34,6.35-12.1,12,7.37,12,7.37,4.08-5.2,9.64-4.87,7,8.93,7,8.93S91.92,354.69,94.15,363.36Z" style="fill:#37474f"></path><path d="M403.9,363.36H371.61s.07-4.81,3.25-6.08a4.32,4.32,0,0,1,5.06,1.21s1.29-8.84,7.21-8.84,8.74,7.63,8.74,7.63a4.54,4.54,0,0,1,4.61-1.88C403.77,355.83,403.9,363.36,403.9,363.36Z" style="fill:#455a64"></path></g><g id="freepik--Floor--inject-15"><rect x="34.18" y="363.36" width="431.64" height="8.59" style="fill:#a6a6a6"></rect><path d="M56.39,363.36a18.7,18.7,0,0,1,0,8.59,18.7,18.7,0,0,1,0-8.59Z" style="fill:#263238"></path><path d="M82.2,363.36a18.7,18.7,0,0,1,0,8.59,18.7,18.7,0,0,1,0-8.59Z" style="fill:#263238"></path><path d="M108,363.36a18.7,18.7,0,0,1,0,8.59,18.7,18.7,0,0,1,0-8.59Z" style="fill:#263238"></path><path d="M133.83,363.36a18.7,18.7,0,0,1,0,8.59,18.7,18.7,0,0,1,0-8.59Z" style="fill:#263238"></path><path d="M159.65,363.36a18.7,18.7,0,0,1,0,8.59,18.7,18.7,0,0,1,0-8.59Z" style="fill:#263238"></path><path d="M185.46,363.36a18.7,18.7,0,0,1,0,8.59,18.7,18.7,0,0,1,0-8.59Z" style="fill:#263238"></path><path d="M211.28,363.36a18.7,18.7,0,0,1,0,8.59,18.7,18.7,0,0,1,0-8.59Z" style="fill:#263238"></path><path d="M237.09,363.36a18.7,18.7,0,0,1,0,8.59,18.7,18.7,0,0,1,0-8.59Z" style="fill:#263238"></path><path d="M262.91,363.36a18.7,18.7,0,0,1,0,8.59,18.7,18.7,0,0,1,0-8.59Z" style="fill:#263238"></path><path d="M288.72,363.36a18.7,18.7,0,0,1,0,8.59,18.7,18.7,0,0,1,0-8.59Z" style="fill:#263238"></path><path d="M314.54,363.36a18.7,18.7,0,0,1,0,8.59,18.7,18.7,0,0,1,0-8.59Z" style="fill:#263238"></path><path d="M340.35,363.36a18.7,18.7,0,0,1,0,8.59,18.7,18.7,0,0,1,0-8.59Z" style="fill:#263238"></path><path d="M366.17,363.36a18.7,18.7,0,0,1,0,8.59,18.7,18.7,0,0,1,0-8.59Z" style="fill:#263238"></path><path d="M392,363.36a18.7,18.7,0,0,1,0,8.59,18.7,18.7,0,0,1,0-8.59Z" style="fill:#263238"></path><path d="M417.8,363.36a18.7,18.7,0,0,1,0,8.59,18.7,18.7,0,0,1,0-8.59Z" style="fill:#263238"></path><path d="M443.61,363.36a18.7,18.7,0,0,1,0,8.59,18.7,18.7,0,0,1,0-8.59Z" style="fill:#263238"></path><polygon points="33.36 371.95 87.52 371.7 141.68 371.62 250 371.45 358.32 371.62 412.48 371.7 466.64 371.95 412.48 372.19 358.32 372.28 250 372.45 141.68 372.28 87.52 372.19 33.36 371.95" style="fill:#263238"></polygon></g><g id="freepik--smart-watch--inject-15"><rect x="113.84" y="149.71" width="86.68" height="102.88" style="fill:#455a64"></rect><rect x="109.3" y="164.53" width="4.55" height="44" style="fill:#FF781F"></rect><rect x="109.3" y="220.06" width="4.55" height="17.71" style="fill:#FF781F"></rect><rect x="200.51" y="168.18" width="4.55" height="17.71" style="fill:#FF781F"></rect><rect x="200.51" y="191.98" width="4.55" height="28.61" style="fill:#FF781F"></rect><rect x="122.04" y="159.44" width="70.28" height="83.42" style="fill:#fff"></rect><path d="M186.72,169h-12v-5.56h12Zm-11.4-.61h10.79v-4.34H175.32Z" style="fill:#a6a6a6"></path><rect x="175.7" y="164.41" width="7.74" height="3.67" style="fill:#a6a6a6"></rect><rect x="186.72" y="164.76" width="1.07" height="2.98" style="fill:#a6a6a6"></rect><path d="M149.61,164.25l-1.91,4.53a.4.4,0,0,1-.39.25.45.45,0,0,1-.16,0,.43.43,0,0,1-.23-.55l1.65-3.93h-2a.44.44,0,0,1-.43-.43.42.42,0,0,1,.43-.42h2.7a.35.35,0,0,1,.16.06l0,0,0,0,0,0,0,0s0,0,0,0l0,0v0s0,0,0,0v.16Z" style="fill:#a6a6a6"></path><path d="M151.41,164.89a.58.58,0,0,1,.57.58.57.57,0,0,1-.57.56.56.56,0,0,1-.57-.56A.57.57,0,0,1,151.41,164.89Zm0,3.05a.58.58,0,0,1,.57.58.57.57,0,0,1-.57.56.56.56,0,0,1-.57-.56A.57.57,0,0,1,151.41,167.94Z" style="fill:#a6a6a6"></path><path d="M155.41,165.77a1.9,1.9,0,1,1-2.68,2.69.43.43,0,0,1,.61-.61,1,1,0,0,0,.73.3,1.06,1.06,0,0,0,.73-.3,1,1,0,0,0,.31-.74,1,1,0,0,0-.31-.72,1,1,0,0,0-.73-.31.38.38,0,0,1-.31-.14h0a.44.44,0,0,1,0-.61l.78-.79h-1.24a.44.44,0,0,1,0-.87h2.26a.43.43,0,0,1,.43.43.46.46,0,0,1-.05.21.39.39,0,0,1-.08.1l-1,1A1.64,1.64,0,0,1,155.41,165.77Z" style="fill:#a6a6a6"></path><path d="M157.18,166.35a3.26,3.26,0,0,1,.52-1.83,1.61,1.61,0,0,1,2.84,0,3.48,3.48,0,0,1,0,3.66,1.61,1.61,0,0,1-2.84,0A3.28,3.28,0,0,1,157.18,166.35Zm3,0a2.58,2.58,0,0,0-.36-1.36.89.89,0,0,0-.72-.47.9.9,0,0,0-.72.47,2.49,2.49,0,0,0-.37,1.36,2.45,2.45,0,0,0,.37,1.35.94.94,0,0,0,.72.48.93.93,0,0,0,.72-.48A2.54,2.54,0,0,0,160.2,166.35Z" style="fill:#a6a6a6"></path><path d="M164.18,168.29h-1.09l-.22.58a.25.25,0,0,1-.23.16h-.09a.25.25,0,0,1-.14-.33l1-2.63a.26.26,0,0,1,.48,0l1,2.63a.27.27,0,0,1-.15.33h-.09a.25.25,0,0,1-.23-.16Zm-.19-.49-.36-1-.36,1Z" style="fill:#a6a6a6"></path><path d="M168.16,166.15v2.63a.25.25,0,0,1-.25.25.25.25,0,0,1-.25-.25V166.9l-.64.89a.26.26,0,0,1-.21.11h0a.25.25,0,0,1-.21-.11l-.64-.89v1.88a.25.25,0,0,1-.25.25.25.25,0,0,1-.25-.25v-2.63a.25.25,0,0,1,.25-.25h0a.26.26,0,0,1,.2.1l.89,1.24.89-1.24a.26.26,0,0,1,.2-.1h0A.25.25,0,0,1,168.16,166.15Z" style="fill:#a6a6a6"></path><rect x="131.89" y="163.47" width="1.25" height="5.56" style="fill:#a6a6a6"></rect><rect x="130.12" y="164.47" width="1.25" height="4.56" style="fill:#a6a6a6"></rect><rect x="128.35" y="165.47" width="1.25" height="3.56" style="fill:#a6a6a6"></rect><rect x="126.57" y="166.46" width="1.25" height="2.56" style="fill:#a6a6a6"></rect><path d="M156.91,229.12a2.52,2.52,0,0,1,5-.26s0,0,0,0c0,.19,0,.39,0,.59a6,6,0,0,1-.36,2.12,3.67,3.67,0,0,1-1.34,1.78,3,3,0,0,1-1.56.48.57.57,0,0,1-.6-.55.6.6,0,0,1,.56-.6,1.86,1.86,0,0,0,1-.29,2.07,2.07,0,0,0,.65-.72c.05-.09.09-.18.13-.27a2.53,2.53,0,0,1-3.51-2.31Zm1.15,0a1.37,1.37,0,1,0,2.73,0,1.37,1.37,0,0,0-2.73,0Z" style="fill:#a6a6a6"></path><path d="M163.55,230.24a4.38,4.38,0,0,1,.71-2.47,2.33,2.33,0,0,1,1.93-1.16,2.35,2.35,0,0,1,1.92,1.16,4.78,4.78,0,0,1,0,4.95,2.36,2.36,0,0,1-1.92,1.15,2.34,2.34,0,0,1-1.93-1.15A4.42,4.42,0,0,1,163.55,230.24Zm4.1,0a3.42,3.42,0,0,0-.5-1.84,1.19,1.19,0,0,0-1-.63,1.24,1.24,0,0,0-1,.63,3.64,3.64,0,0,0,0,3.68,1.26,1.26,0,0,0,1,.64,1.2,1.2,0,0,0,1-.64A3.42,3.42,0,0,0,167.65,230.24Z" style="fill:#a6a6a6"></path><path d="M153,231a10.38,10.38,0,0,1-3.33,2.89,10.38,10.38,0,0,1-3.33-2.89c-1.18-1.55-1.12-4,.56-4.51,1.86-.58,2.77,2.21,2.77,2.21s.92-2.81,2.77-2.21C154.14,227,154.21,229.43,153,231Z" style="fill:#FF781F"></path><rect x="136.11" y="222.4" width="42.12" height="0.67" style="fill:#FF781F"></rect><path d="M156.9,177a21.33,21.33,0,1,0,21.33,21.32A21.33,21.33,0,0,0,156.9,177Zm0,36.12a14.8,14.8,0,1,1,14.8-14.8A14.8,14.8,0,0,1,156.9,213.16Z" style="fill:#FF781F"></path><path d="M156.9,177a21.33,21.33,0,1,0,21.33,21.32A21.33,21.33,0,0,0,156.9,177Zm0,36.12a14.8,14.8,0,1,1,14.8-14.8A14.8,14.8,0,0,1,156.9,213.16Z" style="fill:#050400;opacity:0.2"></path><path d="M156.9,177v6.53a14.8,14.8,0,1,1-14.79,14.79,14.45,14.45,0,0,1,1.69-6.83l-5.8-3a21.08,21.08,0,0,0-2.42,9.85A21.33,21.33,0,1,0,156.9,177Z" style="fill:#FF781F"></path><g id="freepik--qDp2MS.tif--inject-15"><path d="M167,195.19c-1,1-2,2-3,3a1.26,1.26,0,0,1-1.9,0c-.52-.52-1-1-1.52-1.55-.82.82-1.6,1.6-2.41,2.43l1.44,1.44c.46.46.94.91,1.38,1.4a.93.93,0,0,1,.19.65c-.34,1.9-.7,3.79-1,5.69a1.46,1.46,0,0,1-1.62,1.28,1.42,1.42,0,0,1-1.22-1.69c.19-1.34.42-2.68.61-4a.64.64,0,0,0-.12-.49c-.65-.71-1.32-1.41-2-2.13-.82.86-1.6,1.73-2.42,2.55a1.15,1.15,0,0,1-.76.33c-1.45,0-2.9,0-4.35,0a1.74,1.74,0,0,1-1.88-1.13v-.65a1.71,1.71,0,0,1,1.88-1.13c.9,0,1.81,0,2.71,0a.76.76,0,0,0,.49-.19c1.75-1.94,3.49-3.9,5.24-5.85a.39.39,0,0,0,0-.11,1.11,1.11,0,0,0-1.18.39c-.59.7-1.25,1.35-1.88,2a1.22,1.22,0,0,1-1.82.12,1.27,1.27,0,0,1,.07-1.87c1.05-1,2.1-2,3.17-3a1,1,0,0,1,.57-.22c1.21,0,2.41,0,3.61,0a1.68,1.68,0,0,1,1.22.48c.76.72,1.55,1.41,2.29,2.14.33.33.54.28.83,0,.52-.56,1.07-1.09,1.61-1.63a1.25,1.25,0,0,1,1.83,0A1.22,1.22,0,0,1,167,195.19Z" style="fill:#455a64"></path><path d="M165.24,191.38a2.15,2.15,0,0,1-2.17,2.16,2.17,2.17,0,0,1-2.17-2.17,2.2,2.2,0,0,1,2.19-2.17A2.17,2.17,0,0,1,165.24,191.38Z" style="fill:#455a64"></path></g><polygon points="133.94 317.27 180.43 317.27 186.43 252.59 127.94 252.59 133.94 317.27" style="fill:#FF781F"></polygon><polygon points="186.43 252.59 185.57 261.78 128.87 262.59 127.94 252.59 186.43 252.59" style="fill:#050400;opacity:0.2"></polygon><polygon points="180.43 85.03 133.94 85.03 127.94 149.71 186.43 149.71 180.43 85.03" style="fill:#FF781F"></polygon><polygon points="186.43 149.71 127.94 149.71 128.69 141.57 185.59 140.75 186.43 149.71" style="fill:#050400;opacity:0.2"></polygon><path d="M277.81,229a2.64,2.64,0,1,1-2.64-2.64A2.64,2.64,0,0,1,277.81,229Z" style="fill:#455a64"></path><polygon points="275.59 229.59 239.52 229.59 207.87 197.94 208.58 197.24 239.93 228.59 275.59 228.59 275.59 229.59" style="fill:#455a64"></polygon></g><g id="freepik--Icons--inject-15"><polygon points="234.69 122.99 192.17 122.99 192.17 80.46 194.17 78.46 236.69 78.46 236.69 120.99 234.69 122.99" style="fill:#455a64"></polygon><rect x="194.17" y="78.46" width="42.52" height="42.52" style="fill:#FF781F"></rect><path d="M228.31,103a40,40,0,0,1-12.89,11.19A40.08,40.08,0,0,1,202.54,103c-4.54-6-4.31-15.4,2.18-17.43,7.18-2.25,10.7,8.55,10.7,8.55s3.58-10.87,10.72-8.55C232.6,87.68,232.85,97,228.31,103Z" style="fill:#fff"></path><polygon points="210.36 109.45 208.41 101.31 207.13 104.18 199.22 104.18 199.22 103.26 206.53 103.26 208.67 98.46 210.19 104.81 212.35 91.65 214.25 102.06 215.76 97.71 218.13 104.83 218.66 103.26 231.64 103.26 231.64 104.17 219.32 104.17 218.13 107.73 215.74 100.57 213.98 105.67 212.4 97.03 210.36 109.45" style="fill:#FF781F"></polygon><path d="M234.58,118.87H196.29V80.58h38.29Zm-37.79-.5h37.29V81.08H196.79Z" style="fill:#fff"></path><polygon points="261.3 199.3 218.78 199.3 218.78 156.78 220.78 154.78 263.3 154.78 263.3 197.3 261.3 199.3" style="fill:#455a64"></polygon><rect x="220.77" y="154.78" width="42.52" height="42.52" style="fill:#FF781F"></rect><path d="M261.18,195.18H222.89V156.89h38.29Zm-37.79-.5h37.29V157.39H223.39Z" style="fill:#fff"></path><rect x="229.32" y="168.51" width="5.52" height="15.07" style="fill:#fff"></rect><rect x="226.88" y="170.1" width="2.44" height="11.87" style="fill:#fff"></rect><polygon points="229.32 181.98 228.6 181.98 228.1 170.1 229.32 170.1 229.32 181.98" style="fill:#ebebeb"></polygon><rect x="249.23" y="168.51" width="5.52" height="15.07" transform="translate(503.98 352.08) rotate(180)" style="fill:#fff"></rect><rect x="254.75" y="170.1" width="2.44" height="11.87" transform="translate(511.94 352.08) rotate(180)" style="fill:#fff"></rect><polygon points="254.75 170.1 255.47 170.1 255.97 181.98 254.75 181.98 254.75 170.1" style="fill:#ebebeb"></polygon><rect x="234.84" y="174.27" width="14.39" height="3.54" style="fill:#fff"></rect><polygon points="235.52 177.81 234.84 177.81 234.84 174.27 235.85 174.27 235.52 177.81" style="fill:#ebebeb"></polygon><polygon points="248.55 174.27 249.23 174.27 249.23 177.81 248.22 177.81 248.55 174.27" style="fill:#ebebeb"></polygon><polygon points="114.41 311.38 71.89 311.38 71.89 268.86 73.89 266.86 116.41 266.86 116.41 309.38 114.41 311.38" style="fill:#455a64"></polygon><rect x="73.89" y="266.86" width="42.52" height="42.52" style="fill:#FF781F"></rect><path d="M114.3,307.27H76V269H114.3Zm-37.79-.5H113.8v-37.3H76.51Z" style="fill:#fff"></path><path d="M105.26,282.5c-.5-5.06-4-10.09-10.11-10.09s-9.61,5-10.11,10.09c-.77,7.81,4.49,14.88,10.11,21.33C100.77,297.38,106,290.31,105.26,282.5Zm-10.11,5.62a5.54,5.54,0,1,1,5.54-5.54A5.54,5.54,0,0,1,95.15,288.12Z" style="fill:#fff"></path><polygon points="91.67 228.98 49.15 228.98 49.15 186.46 51.15 184.46 93.67 184.46 93.67 226.98 91.67 228.98" style="fill:#455a64"></polygon><rect x="51.15" y="184.46" width="42.52" height="42.52" style="fill:#FF781F"></rect><path d="M91.55,224.86H53.26V186.57H91.55Zm-37.79-.5H91.05V187.07H53.76Z" style="fill:#fff"></path><rect x="69.55" y="190.72" width="5.71" height="3.23" style="fill:#263238"></rect><rect x="68.75" y="189.63" width="7.32" height="2.12" style="fill:#455a64"></rect><rect x="61.85" y="194.18" width="2.2" height="3.47" transform="translate(-120.1 101.9) rotate(-45)" style="fill:#263238"></rect><rect x="59.95" y="193.53" width="3.49" height="2.27" transform="translate(-119.58 100.65) rotate(-45)" style="fill:#455a64"></rect><rect x="80.76" y="194.18" width="2.2" height="3.47" transform="translate(1.22 392.33) rotate(-135)" style="fill:#263238"></rect><rect x="81.37" y="193.53" width="3.49" height="2.27" transform="translate(4.23 391.08) rotate(-135)" style="fill:#455a64"></rect><circle cx="72.41" cy="207.42" r="13.87" transform="matrix(0.16, -0.99, 0.99, 0.16, -143.9, 245.82)" style="fill:#455a64"></circle><circle cx="72.24" cy="207.19" r="13.24" style="fill:#263238"></circle><circle cx="72.41" cy="207.36" r="11.69" transform="translate(-143.85 245.74) rotate(-80.82)" style="fill:#fff"></circle><rect x="72.29" y="196.51" width="0.23" height="1.77" style="fill:#c7c7c7"></rect><rect x="67.32" y="197.85" width="0.23" height="1.77" transform="translate(-90.33 60.34) rotate(-30)" style="fill:#c7c7c7"></rect><rect x="63.67" y="201.49" width="0.23" height="1.77" transform="translate(-143.37 156.42) rotate(-60)" style="fill:#c7c7c7"></rect><rect x="61.56" y="207.24" width="1.77" height="0.23" style="fill:#c7c7c7"></rect><rect x="62.9" y="212.22" width="1.77" height="0.23" transform="translate(-97.57 60.29) rotate(-29.98)" style="fill:#c7c7c7"></rect><rect x="66.54" y="215.87" width="1.77" height="0.23" transform="translate(-153.36 166.52) rotate(-60.04)" style="fill:#c7c7c7"></rect><rect x="72.29" y="216.43" width="0.23" height="1.77" style="fill:#c7c7c7"></rect><rect x="77.27" y="215.09" width="0.23" height="1.77" transform="translate(-97.62 67.62) rotate(-30)" style="fill:#c7c7c7"></rect><rect x="80.92" y="211.45" width="0.23" height="1.77" transform="translate(-143.37 176.33) rotate(-60)" style="fill:#c7c7c7"></rect><rect x="81.48" y="207.24" width="1.77" height="0.23" style="fill:#c7c7c7"></rect><rect x="80.15" y="202.26" width="1.77" height="0.23" transform="translate(-90.32 67.61) rotate(-29.99)" style="fill:#c7c7c7"></rect><rect x="76.5" y="198.62" width="1.77" height="0.23" transform="translate(-133.43 166.47) rotate(-60.02)" style="fill:#c7c7c7"></rect><polygon points="72.49 198.9 73.01 208.05 71.83 208.04 72.17 198.89 72.49 198.9" style="fill:#263238"></polygon><path d="M72.81,207.36a.4.4,0,1,1-.4-.4A.4.4,0,0,1,72.81,207.36Z" style="fill:#FF781F"></path></g><g id="freepik--Character--inject-15"><path d="M383.59,425.09c-2.32,0-62.31-19.47-64.12-21.66-.7-.82,23-52.1,23-52.1L380,365,363.48,396s19.08,17.25,20.82,19.87S385.92,425.08,383.59,425.09Z" style="fill:#dd6a57"></path><path d="M383.59,425.09c-2.32,0-62.31-19.47-64.12-21.66-.34-.39,5.15-12.91,10.69-25.18l36.12,12.49-2.8,5.23s19.08,17.24,20.82,19.86S385.91,425.08,383.59,425.09Z" style="fill:#ebebeb"></path><path d="M383.86,425.14c-2.31,0-62.92-19.16-64.73-21.34-.69-.83,3.7-10.26,7.82-20.18L364,395.9s18.8,17.42,20.53,20S386.18,425.12,383.86,425.14Z" style="fill:#FF781F"></path><path d="M383.78,422.47c-9.93-3.49-50.33-16.65-60.41-19.35-.08,0-.1,0,0,.06,9.77,3.68,50.27,16.51,60.38,19.46C383.94,422.7,384,422.55,383.78,422.47Z" style="fill:#263238"></path><path d="M381.41,412.52a8.45,8.45,0,0,0-6.78.51,8.18,8.18,0,0,0-4,4.62c0,.06.09.09.12,0a9.77,9.77,0,0,1,10.59-5A.07.07,0,1,0,381.41,412.52Z" style="fill:#263238"></path><path d="M366.84,397.92c-4-1.35-9.09-1.45-12.65,1-.14.1,0,.29.14.27a58,58,0,0,1,12.42-.77A.27.27,0,0,0,366.84,397.92Z" style="fill:#263238"></path><path d="M369.54,400.13c-4-1.35-9.09-1.45-12.65,1-.13.1,0,.29.14.27a58,58,0,0,1,12.42-.77A.27.27,0,0,0,369.54,400.13Z" style="fill:#263238"></path><path d="M372.25,402.34c-4-1.35-9.1-1.45-12.65,1-.14.1,0,.29.14.27a57.9,57.9,0,0,1,12.41-.77A.27.27,0,0,0,372.25,402.34Z" style="fill:#263238"></path><path d="M375,404.55c-4-1.35-9.1-1.45-12.65,1-.14.1,0,.29.14.27a58,58,0,0,1,12.42-.77A.27.27,0,0,0,375,404.55Z" style="fill:#263238"></path><path d="M329,394.43c-4.5-1.44-6.76,5.55-2.25,7S333.52,395.88,329,394.43Z" style="fill:#263238"></path><path d="M374.65,388.64c-1.49-2.35-4.58-1.53-6.39-.19a22.08,22.08,0,0,0-5.94,6.9,11.07,11.07,0,0,0-.59,1.13c-.07.17-.15.33-.23.49,0,0,0,0,0,0l0,.13c-.06.15-.11.28-.17.41a.11.11,0,0,0,.1.15.52.52,0,0,0,.28.51.38.38,0,0,0,.32.05c1-.29,2-.56,3-.84a4.77,4.77,0,0,0,.51-.13,22.43,22.43,0,0,0,7-2.86C374.21,393.18,376,390.85,374.65,388.64ZM367,395.55l-2.48.78c-.71.22-1.4.45-2.09.68l-.29.11-.26.09L362,397l0,0c.35-.46.7-.91,1-1.38a40.69,40.69,0,0,1,3-3.59,22.28,22.28,0,0,1,2.33-2.23c1.3-1,6.33-3.11,5.31,1.38C373.12,393.62,369,394.89,367,395.55Z" style="fill:#263238"></path><path d="M362.22,397.56a.11.11,0,0,0,.07-.17,1.27,1.27,0,0,0-.18-.27.18.18,0,0,0-.06-.13s0,0,0,0a2.9,2.9,0,0,0-.3-.49,16.46,16.46,0,0,0-1.24-1.73,22,22,0,0,0-6.3-5.43c-2-1.1-5.14-1.49-6.3,1a1,1,0,0,0-.1.27c-.84,2.27,1.2,4.22,3.06,5.17a21.47,21.47,0,0,0,6.3,1.77c1.51.23,3,.4,4.51.63h0C362.07,398.25,362.27,397.88,362.22,397.56Zm-5.81-1.36c-2.11-.39-6.36-1.12-7.25-3.5a3.47,3.47,0,0,1-.27-1.72c.34-2.14,4.16-1.05,5.35-.33a24.16,24.16,0,0,1,2.62,1.89c.64.51,1.23,1.06,1.82,1.63,1,.91,1.87,1.86,2.82,2.8h0l.18.18a.93.93,0,0,0-.24-.05l-.61-.13C359.37,396.69,357.89,396.47,356.41,396.2Z" style="fill:#263238"></path><path d="M373.52,377.48l-37-13.41s36.15-80.94,34.32-84c-2.38-4-47.76-24.08-61-38.52-17.45-19-7.92-42.26-7.92-42.26l34.88,0s4.65,12.57,5.6,14.09c3.81,6.12,71.37,35.24,75,51.49C423,290.45,373.52,377.48,373.52,377.48Z" style="fill:#263238"></path><path d="M306.34,199.87a48.79,48.79,0,0,0-.06,6.51,57.73,57.73,0,0,0,.64,6.45,44.21,44.21,0,0,0,3.67,12.24,32.07,32.07,0,0,0,3.25,5.41,14.57,14.57,0,0,0,1,1.23,14.33,14.33,0,0,0,1,1.16c.72.74,1.5,1.45,2.3,2.13a105.63,105.63,0,0,0,10.45,7.49c7.29,4.63,14.79,9,22.36,13.25s15.16,8.49,22.74,12.86c1.88,1.12,3.76,2.24,5.64,3.46a30.78,30.78,0,0,1,2.86,2.07,6,6,0,0,1,.86.91,1.64,1.64,0,0,1,.15.22,2.46,2.46,0,0,1,.16.3l.08.19c0,.1.06.2.09.3s0,.2,0,.2v.09a5.24,5.24,0,0,1,0,.67,11.73,11.73,0,0,1-.25,2,57.66,57.66,0,0,1-1.91,6.51q-1.08,3.13-2.28,6.18-4.86,12.21-10.3,24.08-10.8,23.82-22.9,47c6.59-16.13,13.4-32.15,20-48.21,3.27-8.05,6.63-16.07,9.62-24.19.74-2,1.48-4.05,2.17-6.08a55.76,55.76,0,0,0,1.73-6,9.12,9.12,0,0,0,.16-1.27c0-.09,0-.09,0-.14v0s0,0,0,.1a1.17,1.17,0,0,0,.05.2l0,.1.07.12,0,.05a2.85,2.85,0,0,0-.27-.25,24.73,24.73,0,0,0-2.45-1.73c-1.78-1.14-3.64-2.24-5.51-3.33-7.46-4.39-15.08-8.62-22.6-13s-15-8.92-22.2-13.93A97.37,97.37,0,0,1,316.4,237c-.82-.77-1.62-1.56-2.38-2.42-.38-.43-.73-.9-1.07-1.35s-.67-.9-1-1.38a33.49,33.49,0,0,1-3.17-5.93,44.29,44.29,0,0,1-3-12.91A53.06,53.06,0,0,1,306.34,199.87Z" style="fill:#455a64"></path><path d="M228,440.9c-.91,0-17.19.8-18.58-.45-14.11-12.65-34-45.85-34.36-47.52-.27-1.05,14.65-13.34,14.73-13.42,1.54-1.7,30.75-28,30.75-28l29.09,29.33-30.25,26.59-.5.49A105.4,105.4,0,0,0,223,426c.4,1.19,5.64,6.33,6,7.32C230.14,436.55,229.23,440.9,228,440.9Z" style="fill:#dd6a57"></path><path d="M228,440.9c-.93,0-17.2.8-18.59-.46-14.11-12.64-34-45.84-34.36-47.52-.28-1.05,14.65-13.32,14.73-13.41.38-.42,2.44-2.33,5.34-5l28.56,29.13-4.32,3.8-.49.48A105.72,105.72,0,0,0,223,426c.42,1.19,5.65,6.34,6,7.33C230.14,436.55,229.23,440.9,228,440.9Z" style="fill:#ebebeb"></path><path d="M228.6,441.15c-.53.36-18.43.5-19.62-.57-11.3-10.21-34.71-46-35-48-.13-1.06,7.87-8.3,16.71-14.4L219.08,408s1.75,11.71,4,18c.52,1.43,5.66,6.13,6.13,7.18C230.66,436.34,229.35,440.64,228.6,441.15Z" style="fill:#FF781F"></path><path d="M227.24,431.78a10.82,10.82,0,0,0-8.17-1.49,9.19,9.19,0,0,0-5.85,4c0,.06.08.14.13.08,3.11-3.68,9.23-4.86,13.81-2.5A.08.08,0,0,0,227.24,431.78Z" style="fill:#263238"></path><path d="M189.49,389.54c-3-3.65-8.68,1-5.68,4.66S192.49,393.21,189.49,389.54Z" style="fill:#263238"></path><path d="M231.72,408.64c.12-2.77-2.89-3.86-5.14-3.8a22.27,22.27,0,0,0-8.81,2.28,12,12,0,0,0-1.13.59l-.47.27s0,0,0,0l-.11.08-.37.24a.11.11,0,0,0,0,.18.51.51,0,0,0-.06.58.38.38,0,0,0,.24.22l2.91,1,.5.19a22.94,22.94,0,0,0,7.35,1.62C228.77,412.13,231.61,411.26,231.72,408.64Zm-10.25,1.3-2.48-.77-2.11-.64-.29-.07-.27-.08.25-.09h0l1.65-.54a38.29,38.29,0,0,1,4.49-1.26,22.86,22.86,0,0,1,3.18-.5c1.66-.11,7,1.06,3.57,4.16C227.62,411.86,223.51,410.55,221.47,409.94Z" style="fill:#263238"></path><path d="M216.43,408.89a.12.12,0,0,0,.15-.1,1.24,1.24,0,0,0,0-.33.19.19,0,0,0,0-.14s0,0,0,0a2.93,2.93,0,0,0,0-.58,15,15,0,0,0,0-2.12,22,22,0,0,0-2.07-8.06c-1-2-3.37-4.16-5.76-2.76l-.24.17c-2,1.38-1.42,4.15-.43,6a21.15,21.15,0,0,0,4.17,5.05c1.1,1,2.26,2.06,3.34,3.09l0,0A.51.51,0,0,0,216.43,408.89Zm-4-4.44c-1.51-1.52-4.59-4.55-4-7a3.42,3.42,0,0,1,.76-1.56c1.5-1.57,4,1.51,4.58,2.77a23.45,23.45,0,0,1,1.07,3.05c.23.78.41,1.57.57,2.37.28,1.3.48,2.6.72,3.91v0c0,.08,0,.17.05.25a1.45,1.45,0,0,0-.17-.18c-.14-.15-.27-.3-.42-.45C214.58,406.54,213.49,405.52,212.43,404.45Z" style="fill:#263238"></path><path d="M220.75,412.79c-2.51-3.39-6.65-6.38-11-6.38-.16,0-.16.24,0,.3a58.94,58.94,0,0,1,10.64,6.45A.26.26,0,0,0,220.75,412.79Z" style="fill:#263238"></path><path d="M221.7,416.15c-2.5-3.39-6.64-6.38-11-6.38-.16,0-.16.24,0,.3a58.37,58.37,0,0,1,10.64,6.45A.26.26,0,0,0,221.7,416.15Z" style="fill:#263238"></path><path d="M222.66,419.51c-2.5-3.39-6.64-6.38-11-6.38-.17,0-.16.24,0,.3a57.7,57.7,0,0,1,10.64,6.45A.26.26,0,0,0,222.66,419.51Z" style="fill:#263238"></path><path d="M223.62,422.86c-2.5-3.39-6.64-6.38-11-6.38-.17,0-.16.24,0,.3a58.26,58.26,0,0,1,10.64,6.45A.26.26,0,0,0,223.62,422.86Z" style="fill:#263238"></path><path d="M228.74,438.7c-4.91-.65-9.94-.55-14.87-1l-1.73-.17a2.56,2.56,0,0,1-1.73-.52,27.43,27.43,0,0,1-2.21-2.82l-4.42-5.79q-8.84-11.64-17.4-23.51c-1.61-2.23-3.24-4.44-4.86-6.67s-3.4-4.36-5-6.58c-.05-.08-.19,0-.13.08,1.37,2.09,2.61,4.27,4,6.34s2.82,4.15,4.27,6.19q4.31,6.09,8.74,12.1t8.95,11.94q2.28,3,4.59,6c.74,1,1.48,1.92,2.24,2.87a3,3,0,0,0,2.27,1.33c5.7.55,11.52.41,17.25.69C228.94,439.14,229,438.73,228.74,438.7Z" style="fill:#263238"></path><path d="M335.11,199.33s3.44,29.49-2.64,36.21c0,0-20.17,72.29-26,88.25-9,24.72-66.84,65.81-66.84,65.81l-29-29.18s52.75-47.46,53-49.14c1.23-9.55,22.42-69.7,21.83-71.34-6.72-18.59,4.16-40.61,4.16-40.61Z" style="fill:#263238"></path><path d="M216.66,366.47c8.92-9,18-17.72,27.17-26.43l13.78-13,6.94-6.43L268,317.4l.87-.81.44-.4.21-.2a.94.94,0,0,0,.1-.1l0,0c0-.08,0-.05.11-.18l.23-.43c.15-.26.3-.63.45-1,1.22-2.72,2.26-5.73,3.29-8.67s2-6,3-9c1.92-6,3.85-12,5.71-18l11.18-36.18.05,1a33.1,33.1,0,0,1-1.37-5.67l-.21-1.41-.14-1.41c-.12-.94-.15-1.88-.2-2.83a63.71,63.71,0,0,1,.54-11.23c.3-1.85.57-3.7,1-5.51s.89-3.62,1.4-5.4c.24-.9.55-1.78.86-2.65l.91-2.63c.68-1.72,1.43-3.42,2.13-5.12-.53,1.77-1.1,3.52-1.61,5.29s-1,3.55-1.3,5.36-.75,3.59-1,5.41-.45,3.62-.62,5.44a68,68,0,0,0,.09,10.87c.1.9.17,1.8.33,2.68l.2,1.34.27,1.31a31.19,31.19,0,0,0,1.41,5l.19.47-.13.49c-1.63,6.12-3.27,12.21-5,18.29s-3.45,12.16-5.29,18.21-3.65,12.11-5.64,18.12c-1,3-2,6-3.06,9s-2.11,6-3.5,9c-.19.38-.34.74-.58,1.16l-.35.61a6.92,6.92,0,0,1-.59.77l-.17.19-.11.11-.22.2-.45.39-.88.78L267,323.26l-7.1,6.28L245.64,342C236.06,350.26,226.45,358.47,216.66,366.47Z" style="fill:#455a64"></path><path d="M295.93,275.67l-3.11,12.91-24.09,4.19c1.29-4.1,2.72-8.57,4.19-13.1Z" style="fill:#FF781F"></path><path d="M291.73,293.14l-.74,3.07-24.62,4.28c.3-1,.61-2,.93-3.1Z" style="fill:#FF781F"></path><path d="M332.44,234.9a31.46,31.46,0,0,0-1.57,4.75c-.47,1.63-.91,3.26-1.35,4.89-.89,3.31-1.81,6.62-2.46,10a.08.08,0,0,0,.15,0c1.16-3.23,2.07-6.54,3-9.84.46-1.63.92-3.26,1.36-4.9a31,31,0,0,0,1.08-4.86C332.68,234.84,332.48,234.8,332.44,234.9Z" style="fill:#455a64"></path><path d="M339.94,230.22a58,58,0,0,0-8.55,4.75c-2.88,1.9-5.43,4.2-8.13,6.33-.08.06,0,.19.08.13,2.83-1.84,5.75-3.54,8.49-5.52s5.35-3.83,8.17-5.55C340.07,230.31,340,230.19,339.94,230.22Z" style="fill:#455a64"></path><path d="M326.56,104.91c-.27-3.83-3.75-11.42-9.9-12.73-13.19-2.8-20.54,15.55-34.65,22.65-17,8.58-23,20-15.11,26.17,8.86,6.87,23.4,1,33.58-21.57,6.36-14.13,11.76-17.53,16-16.69,3.14.62,5.51,5.48,5.51,5.48Z" style="fill:#263238"></path><path d="M304.18,111.73c-1.17,2.17-2.09,4.46-3.09,6.7s-1.94,4.51-3,6.72-2.15,4.39-3.41,6.47a36.2,36.2,0,0,1-4.25,5.88,18.71,18.71,0,0,1-5.64,4.41,21,21,0,0,1-7,1.9,16.15,16.15,0,0,1-7.24-1,15,15,0,0,1-3.28-1.74,13.48,13.48,0,0,1-1.44-1.18,6.75,6.75,0,0,1-1.21-1.41,9.39,9.39,0,0,0,2.47,2.83,15.26,15.26,0,0,0,3.25,2,16.15,16.15,0,0,0,3.68,1.12,16.57,16.57,0,0,0,3.85.22,19.37,19.37,0,0,0,3.8-.57l.92-.24.92-.29a15.14,15.14,0,0,0,1.79-.71,19.52,19.52,0,0,0,6-4.62,46.5,46.5,0,0,0,7.62-12.74c1-2.27,1.84-4.57,2.68-6.88S303.25,114,304.18,111.73Z" style="fill:#263238"></path><path d="M325.29,102.65a20,20,0,0,0-1.52-4.87,11,11,0,0,0-7.53-6,13.7,13.7,0,0,0-2.46-.32,11.87,11.87,0,0,0-2.46.11,14.11,14.11,0,0,0-4.6,1.7,23.67,23.67,0,0,0-4,3c-2.51,2.25-4.77,4.83-7.13,7.32a68.91,68.91,0,0,1-7.6,7.07,66.92,66.92,0,0,1-8.8,5.45,78.08,78.08,0,0,0-8.82,5.18,19.88,19.88,0,0,0-3.79,3.36l-.81,1c-.24.35-.45.71-.69,1.07l-.34.54-.28.57L263.9,129a17.28,17.28,0,0,1,6.07-8.22,75.35,75.35,0,0,1,8.71-5.55,76.69,76.69,0,0,0,8.53-5.57,69.52,69.52,0,0,0,7.4-7c2.37-2.46,4.64-5,7.27-7.35a25.05,25.05,0,0,1,4.25-3.08,14.53,14.53,0,0,1,5-1.7,13.24,13.24,0,0,1,2.67,0,15.28,15.28,0,0,1,2.61.43,12.1,12.1,0,0,1,4.66,2.46,12,12,0,0,1,3,4.27A18.13,18.13,0,0,1,325.29,102.65Z" style="fill:#263238"></path><path d="M329.44,106.81c-.11-1.23-1.18-2.72-2-2.85s-6.45,3.1-6.78,4.68,2.45,2.61,2.45,2.61Z" style="fill:#FF781F"></path><path d="M327.12,159.8c14.43,20.62,30.89,37.28,38.58,37,10.36-.42,31.73-12.38,42.24-19.62C411,175,394,151.31,390.69,153.58c-4,2.74-24.44,17.26-24.9,17.41-1,.3-24.36-16.65-30.22-20.35C325.8,144.47,320.71,150.64,327.12,159.8Z" style="fill:#dd6a57"></path><path d="M423.17,165.48c-3.67,5.05-15.22,12.42-18.69,13.13s-16.66-18.5-15.55-22,14.79-19.48,20.93-21.16S427,160.26,423.17,165.48Z" style="fill:#dd6a57"></path><path d="M400.93,140c-.28,3.29,3.76,1.74,3.76,1.74s-5.28,3.63-4.25,7.14,5.81,1.33,6.15,1.19c-.27.2-5,3.66-3.65,7.08s5.93.67,6.22.48c-.2.27-2.85,3.84-1.2,6.19,2.83,4.05,9.84-4.88,13.83-5.19,0,0,1.3,6.7,1.38,6.88,0,0,6.84-8.36,6.12-13.72a3.44,3.44,0,0,0-3.08-3s2.5-2.46,1.49-5.18c-.52-1.4-3.22-1.81-3.22-1.81a4.33,4.33,0,0,0,.87-4.42c-.83-1.89-3.41-2-3.41-2s.94-2.82-.54-4.48C418.42,127.49,401.54,132.92,400.93,140Z" style="fill:#dd6a57"></path><path d="M421.54,135.24s0-.09,0-.09a30.77,30.77,0,0,0-17,6.62c-.16.13,0,.43.18.32A63.16,63.16,0,0,1,421.54,135.24Z" style="fill:#263238"></path><path d="M424.55,141.69c.07,0,0-.13,0-.12a28.77,28.77,0,0,0-18.16,8.37c-.17.18-.14.5.07.31C409.88,147.1,419,143,424.55,141.69Z" style="fill:#263238"></path><path d="M409,158.07c4.79-4.71,10.62-7.41,17-9.33.08,0,0-.14,0-.14-3.37.09-7.31,1.73-10.27,3.27a17.85,17.85,0,0,0-6.86,6C408.72,158,408.85,158.17,409,158.07Z" style="fill:#263238"></path><path d="M404.69,141.71a21.45,21.45,0,0,0-2.61,2.61,6.83,6.83,0,0,0-1.59,3.16,2.24,2.24,0,0,0,.34,1.56,3.12,3.12,0,0,0,1.24,1.07,3.91,3.91,0,0,0,3.21-.12l2.48-1.09-1.95,1.89a10.94,10.94,0,0,0-2.16,2.86,4,4,0,0,0-.39,3.22,2.27,2.27,0,0,0,2.39,1.56,6.79,6.79,0,0,0,3.19-1.26l2.66-1.8-1.91,2.56a10.55,10.55,0,0,0-1.32,2.31,4.37,4.37,0,0,0-.33,2.46,2,2,0,0,0,1.48,1.56,4.51,4.51,0,0,0,2.49-.43,34.92,34.92,0,0,0,4.83-2.77c.79-.5,1.59-1,2.41-1.47a6.89,6.89,0,0,1,2.64-1,7.16,7.16,0,0,0-2.5,1.21c-.78.53-1.53,1.09-2.28,1.65a30.35,30.35,0,0,1-4.79,3.08,5.24,5.24,0,0,1-3,.61,2.91,2.91,0,0,1-2.27-2.22,5.35,5.35,0,0,1,.33-3.06,11.8,11.8,0,0,1,1.43-2.6l.74.76a7.89,7.89,0,0,1-3.76,1.53,3.28,3.28,0,0,1-2.15-.54,3.82,3.82,0,0,1-1.33-1.76,5,5,0,0,1,.49-4.07,12.31,12.31,0,0,1,2.43-3.12l.53.8a4.73,4.73,0,0,1-4-.06,4.06,4.06,0,0,1-1.46-1.42,2.87,2.87,0,0,1-.35-2,6.87,6.87,0,0,1,1.94-3.28A16.71,16.71,0,0,1,404.69,141.71Z" style="fill:#263238"></path><path d="M390.78,153.51s5.9-25.8,14.86-18.55c2.66,2.15,11,14.17,8.63,15.9-3.07,2.22-7.5-2.14-9.84-5.32,0,0-.77,9.05-7.24,10.4A6.57,6.57,0,0,1,390.78,153.51Z" style="fill:#dd6a57"></path><path d="M404.85,134.4a13.76,13.76,0,0,1,3.07,2.63,30.71,30.71,0,0,1,2.53,3.16,46,46,0,0,1,4.14,7,7.69,7.69,0,0,1,.65,2.05,2.89,2.89,0,0,1-.08,1.23,1.87,1.87,0,0,1-.29.61,1.94,1.94,0,0,1-.48.47,3.36,3.36,0,0,1-2.28.6,6.45,6.45,0,0,1-2.12-.63,12.47,12.47,0,0,1-3.32-2.54,28.87,28.87,0,0,1-2.62-3.14l.85-.25a16.85,16.85,0,0,1-.67,3,15.36,15.36,0,0,1-1.21,2.83,10.65,10.65,0,0,1-1.89,2.43,7.85,7.85,0,0,1-2.55,1.64,9,9,0,0,0,2.31-1.87,10.78,10.78,0,0,0,1.6-2.47,14.59,14.59,0,0,0,1-2.77,15.27,15.27,0,0,0,.46-2.88l.07-1.21.78,1a30.56,30.56,0,0,0,2.61,3,11.74,11.74,0,0,0,3.06,2.28c1.09.53,2.42.76,3.25.14.77-.47.37-1.89-.11-3s-1.13-2.37-1.76-3.54-1.29-2.33-2-3.46A25.74,25.74,0,0,0,404.85,134.4Z" style="fill:#263238"></path><path d="M365.84,196.76h-.14c-7.69.31-24.15-16.35-38.58-37-4.7-6.71-3.22-11.82,1.75-11.64Z" style="fill:#263238"></path><path d="M338.8,192.28l-2,7.05H289.61s7.37-38.64,24.64-50.11c8.64-5.74,16.52-3.22,20.35,3.21,1,1.63,10.85,18.68,10.56,26.86C344.9,186.5,338.8,192.28,338.8,192.28Z" style="fill:#dd6a57"></path><path d="M345.16,179.29c-.27,7.21-6.37,13-6.37,13l-.61,3-48.07-5c3.47-11.13,11.57-32.7,24.15-41.05a20.34,20.34,0,0,1,4.55-2.31c2.82,4.54,12,18.74,15.6,17.8,3.32-.86.75-9.55-.61-13.49a11.52,11.52,0,0,1,.8,1.21C335.57,154.06,345.45,171.11,345.16,179.29Z" style="fill:#FF781F"></path><path d="M314.35,170v8.08l-22.28,6.26c1-2.81,2.2-5.89,3.57-9.06Z" style="fill:#263238"></path><path d="M314.35,181.35v2l-24.2,6.78c.21-.7.45-1.44.7-2.21Z" style="fill:#263238"></path><path d="M322.34,147.49c.17,1,4.67,8.06,9.4,8.14,1.55,0,2.05-8.39,2.05-8.39l.18-.61,2.49-8.57-9.79-7.2-1.42-1s-.53,2.39-1.16,5.37l-.09.42c0,.17-.08.33-.11.49-.1.44-.2.9-.29,1.35s-.14.68-.2,1.05-.13.72-.2,1.08A56.87,56.87,0,0,0,322.34,147.49Z" style="fill:#dd6a57"></path><path d="M324.09,135.27A17.89,17.89,0,0,0,334,146.63l2.49-8.57-9.79-7.2-1.42-1S324.72,132.29,324.09,135.27Z" style="fill:#263238"></path><path d="M350.32,124.12c1.53,15.59-7.64,18.26-11,18.59-3.05.29-13.48.91-16.61-14.44s3.63-21,10.58-22S348.79,108.53,350.32,124.12Z" style="fill:#dd6a57"></path><path d="M347,120a7.93,7.93,0,0,1-1.08-.12,1.7,1.7,0,0,1-1.07-.33.54.54,0,0,1-.07-.67,1.4,1.4,0,0,1,1.33-.46,2.06,2.06,0,0,1,1.34.59A.59.59,0,0,1,347,120Z" style="fill:#263238"></path><path d="M336.89,122.45a9.73,9.73,0,0,0,1.08,0,1.74,1.74,0,0,0,1.1-.22.57.57,0,0,0,.13-.67,1.37,1.37,0,0,0-1.27-.58,2,2,0,0,0-1.39.46A.59.59,0,0,0,336.89,122.45Z" style="fill:#263238"></path><path d="M339.52,125.71s-.08.06-.07.11c.16,1.05.17,2.29-.75,2.75,0,0,0,.07,0,.06C339.87,128.32,339.84,126.68,339.52,125.71Z" style="fill:#263238"></path><path d="M338.43,124.72c-1.71.08-1.43,3.51.16,3.44S339.88,124.66,338.43,124.72Z" style="fill:#263238"></path><path d="M337.78,125c-.29.22-.55.58-.91.65s-.76-.26-1.06-.58c0,0-.06,0-.06,0,.05.66.35,1.32,1.07,1.36s1.06-.59,1.17-1.26C338,125,337.89,124.87,337.78,125Z" style="fill:#263238"></path><path d="M345.33,124.86s.08,0,.09.08c0,1.07.27,2.28,1.26,2.57,0,0,0,.06,0,.06C345.49,127.49,345.2,125.87,345.33,124.86Z" style="fill:#263238"></path><path d="M346.19,123.67c1.7-.25,2.1,3.17.52,3.41S344.77,123.89,346.19,123.67Z" style="fill:#263238"></path><path d="M346.93,123.82c.29.15.6.45.92.43s.61-.42.81-.8c0,0,0,0,.06,0,.09.65,0,1.36-.66,1.56s-1-.34-1.27-1C346.74,124,346.81,123.76,346.93,123.82Z" style="fill:#263238"></path><path d="M340.26,134.11c.26.24.53.57.92.59a2.81,2.81,0,0,0,1.13-.31,0,0,0,0,1,.05.05,1.43,1.43,0,0,1-1.33.63,1.13,1.13,0,0,1-.87-.91C340.14,134.1,340.22,134.07,340.26,134.11Z" style="fill:#263238"></path><path d="M344.33,129.85s.37,1.56.44,2.31c0,.07-.17.12-.42.16a0,0,0,0,1,0,0,3.54,3.54,0,0,1-3.58-1c-.06-.06,0-.15.1-.11a5.42,5.42,0,0,0,3.34.62c0-.21-.72-2.66-.61-2.68a6.57,6.57,0,0,1,1.74.23c-.67-3.29-1.87-6.43-2.49-9.71a.1.1,0,0,1,.19-.07,55.18,55.18,0,0,1,3.13,10.34C346.24,130.36,344.65,130,344.33,129.85Z" style="fill:#263238"></path><path d="M322.62,127.94c3.52-1.24,4-5.24,4-5.24,13.15-2.17,12.59-12.72,12.59-12.72,4.53,5.93,10,6.84,10,6.87a13.22,13.22,0,0,0-2.23-7.78,12.64,12.64,0,0,0-14.47-5.55c-4,1.09-6.89,5.06-6.89,5.06s-5.86,2.34-7.32,7C316,123.24,322.62,127.94,322.62,127.94Z" style="fill:#263238"></path><path d="M325.81,129s-3.24-5-5.5-3.87.05,8.31,2.61,9.38a2.65,2.65,0,0,0,3.6-1.3Z" style="fill:#dd6a57"></path><path d="M321,127.18s0,0,0,.07c1.8.8,2.69,2.53,3.3,4.31a1.47,1.47,0,0,0-2.17-.48c-.05,0,0,.11.05.1a1.65,1.65,0,0,1,1.77.63,8.21,8.21,0,0,1,.8,1.49c.08.16.38.09.32-.1v0C325.2,130.83,323.51,127.5,321,127.18Z" style="fill:#263238"></path><path d="M316.6,148.66c7.37.57,3.64,20-4.58,19.41S310.23,148.17,316.6,148.66Z" style="fill:#dd6a57"></path><path d="M307.78,151.26c-21.57,11-38.78,27.9-38.42,35.12.52,10.35,10.8,35.45,17.61,46.25,2,3.17,26.38-12.9,24.24-16.29-2.58-4.11-16-28.37-16.08-28.84-.27-1,16.07-22.46,20.38-27.71C323.41,150.16,319.51,145.29,307.78,151.26Z" style="fill:#dd6a57"></path><path d="M329.48,249.81a4.47,4.47,0,0,1-4.94,1.29,6.58,6.58,0,0,1-2,4c-2.06,1.8-5.77-.65-5.77-.65A8.2,8.2,0,0,1,314,258.4c-2.15,1.52-6.24-.41-6.24-.41a7.18,7.18,0,0,1-4.63,1.9c-4.6,0-8.29-6-10.67-9.8S286.84,233.36,286,231l24.13-15.49s15.5,13.91,17.67,18.76C329.61,238.3,331.65,247.08,329.48,249.81Z" style="fill:#dd6a57"></path><path d="M324.83,250.68c-.91-4.8-3.18-9.08-5.21-13.47,0-.1-.19,0-.15.07,2.07,4.35,3.24,9.05,5.13,13.47A.12.12,0,0,0,324.83,250.68Z" style="fill:#263238"></path><path d="M317,254.2a12.33,12.33,0,0,0-1.33-3c-.55-1.05-1.12-2.08-1.7-3.11q-1.74-3.09-3.64-6.08c-.06-.09-.21,0-.15.07,1.15,2.05,2.28,4.12,3.35,6.22.53,1.05,1.06,2.11,1.58,3.17a15.33,15.33,0,0,0,1.6,2.92A.17.17,0,0,0,317,254.2Z" style="fill:#263238"></path><path d="M307.69,257.9a8.9,8.9,0,0,0-1.35-2.68c-.55-.93-1.1-1.86-1.64-2.79-1.07-1.87-2.15-3.73-3.17-5.63a.08.08,0,1,0-.15.07c1,1.94,2,3.89,3.05,5.82l1.55,2.83A8.25,8.25,0,0,0,307.6,258,.06.06,0,0,0,307.69,257.9Z" style="fill:#263238"></path><rect x="291.99" y="215.21" width="11.23" height="13.33" transform="translate(256.63 590.82) rotate(-120.37)" style="fill:#455a64"></rect><rect x="298.67" y="225.08" width="0.59" height="5.7" transform="translate(253.41 601.11) rotate(-120.36)" style="fill:#FF781F"></rect><rect x="303.41" y="224.01" width="0.59" height="2.3" transform="translate(263.03 601.03) rotate(-120.38)" style="fill:#FF781F"></rect><rect x="291.63" y="217.21" width="0.59" height="2.3" transform="matrix(-0.51, -0.86, 0.86, -0.51, 251.08, 580.62)" style="fill:#FF781F"></rect><rect x="294.9" y="214.59" width="0.59" height="3.71" transform="matrix(-0.51, -0.86, 0.86, -0.51, 257.66, 580.55)" style="fill:#FF781F"></rect><rect x="293.06" y="216.47" width="9.11" height="10.81" transform="matrix(-0.51, -0.86, 0.86, -0.51, 256.62, 590.82)" style="fill:#fff"></rect><path d="M292.08,220.68l.79,1.34-.62.36-.79-1.34Zm.68,1.31-.7-1.2-.49.28.71,1.21Z" style="fill:#a6a6a6"></path><rect x="291.74" y="221.42" width="1" height="0.48" transform="translate(248.7 585.86) rotate(-120.36)" style="fill:#a6a6a6"></rect><rect x="291.67" y="220.61" width="0.14" height="0.39" transform="translate(248.67 584.13) rotate(-120.36)" style="fill:#a6a6a6"></rect><path d="M294,225.14l.63-.08s0,0,.06,0v0a.06.06,0,0,1,0,.07l-.55.07.13.22a.06.06,0,0,1,0,.07.06.06,0,0,1-.08,0l-.17-.3h0s0,0,0,0H294Z" style="fill:#a6a6a6"></path><path d="M293.93,224.9a.09.09,0,0,1,0-.11.08.08,0,0,1,.1,0,.08.08,0,0,1,0,.1A.09.09,0,0,1,293.93,224.9Zm.35-.2a.09.09,0,0,1,0-.11.08.08,0,0,1,.1,0,.07.07,0,0,1-.12.08Z" style="fill:#a6a6a6"></path><path d="M293.77,224.39a.25.25,0,0,1,.11-.15.31.31,0,0,1,.19,0,.23.23,0,0,1,.15.12.3.3,0,0,1,0,.19.07.07,0,0,1-.07,0,.06.06,0,0,1,0-.07.12.12,0,0,0,0-.1.11.11,0,0,0-.08-.07.12.12,0,0,0-.1,0,.1.1,0,0,0-.06.08.16.16,0,0,0,0,.1.06.06,0,0,1,0,0h0a.07.07,0,0,1-.07,0l-.14,0,.08.14a.05.05,0,0,1,0,.08.08.08,0,0,1-.08,0l-.14-.25a.05.05,0,0,1,0-.08h0l.17,0A.28.28,0,0,1,293.77,224.39Z" style="fill:#a6a6a6"></path><path d="M293.72,224.16a.53.53,0,0,1-.24.06.24.24,0,0,1-.19-.11.22.22,0,0,1,0-.21.52.52,0,0,1,.18-.18.49.49,0,0,1,.23-.06.23.23,0,0,1,.19.1.24.24,0,0,1,0,.22A.42.42,0,0,1,293.72,224.16Zm-.2-.34a.33.33,0,0,0-.13.13.11.11,0,0,0,0,.11s.05,0,.1.05a.3.3,0,0,0,.17-.05.27.27,0,0,0,.13-.13.15.15,0,0,0,0-.11.11.11,0,0,0-.1,0A.33.33,0,0,0,293.52,223.82Z" style="fill:#a6a6a6"></path><path d="M293.48,223.25l.07.12.08,0,0,0h0s0,0,0,0l-.36.06,0,0a0,0,0,0,1,0,0l.23-.29h0a0,0,0,0,1,0,0Zm0,.05-.09.1.13,0Z" style="fill:#a6a6a6"></path><path d="M293,222.94l.29-.17a0,0,0,0,1,.05,0s0,0,0,0l-.22.13h.15l0,0h0a0,0,0,0,1,0,0l-.05.13.21-.13a0,0,0,0,1,0,0s0,0,0,0l-.3.17a0,0,0,0,1,0,0h0a0,0,0,0,1,0,0l.08-.18-.2,0h0S293,223,293,222.94Z" style="fill:#a6a6a6"></path><rect x="295.24" y="226.56" width="0.16" height="0.72" transform="matrix(-0.51, -0.86, 0.86, -0.51, 248.81, 596.44)" style="fill:#a6a6a6"></rect><rect x="295.42" y="226.79" width="0.16" height="0.59" transform="translate(249.04 596.85) rotate(-120.38)" style="fill:#a6a6a6"></rect><rect x="295.59" y="227.02" width="0.16" height="0.46" transform="translate(249.04 597.24) rotate(-120.36)" style="fill:#a6a6a6"></rect><rect x="295.76" y="227.25" width="0.16" height="0.33" transform="matrix(-0.51, -0.86, 0.86, -0.51, 249.16, 597.63)" style="fill:#a6a6a6"></rect><path d="M300.76,220.07a.33.33,0,0,1-.45-.11.34.34,0,0,1,.09-.43h0l.07-.05a.67.67,0,0,1,.26-.09.45.45,0,0,1,.28,0,.43.43,0,0,1,.16.14.08.08,0,0,1,0,.1.07.07,0,0,1-.11,0,.26.26,0,0,0-.09-.09.27.27,0,0,0-.13,0h0a.22.22,0,0,1,.09.1A.32.32,0,0,1,300.76,220.07Zm-.08-.13a.17.17,0,0,0,.07-.24.19.19,0,0,0-.25-.06.17.17,0,0,0,.18.3Z" style="fill:#a6a6a6"></path><path d="M300.45,219.26a.58.58,0,0,1-.33.08.31.31,0,0,1-.25-.14.33.33,0,0,1,0-.29.66.66,0,0,1,.23-.24.68.68,0,0,1,.33-.09.31.31,0,0,1,.25.14.35.35,0,0,1,0,.3A.75.75,0,0,1,300.45,219.26Zm-.27-.46a.46.46,0,0,0-.17.17.16.16,0,0,0,0,.15.13.13,0,0,0,.13.07.37.37,0,0,0,.24-.06.48.48,0,0,0,.17-.18.16.16,0,0,0,0-.15s-.06-.06-.13-.07A.47.47,0,0,0,300.18,218.8Z" style="fill:#a6a6a6"></path><path d="M301.22,220.38a1.34,1.34,0,0,1,.54.19,1.38,1.38,0,0,1-.1.56c-.1.23-.38.39-.55.23s.07-.45.07-.45-.37.08-.43-.17S301,220.36,301.22,220.38Z" style="fill:#FF781F"></path><rect x="297.3" y="220.42" width="5.46" height="0.09" transform="translate(261.48 590.78) rotate(-120.37)" style="fill:#FF781F"></rect><path d="M294.93,223.49a2.77,2.77,0,1,0,1-3.79A2.77,2.77,0,0,0,294.93,223.49Zm4-2.37a1.92,1.92,0,1,1-2.62-.69A1.91,1.91,0,0,1,299,221.12Z" style="fill:#FF781F"></path><path d="M294.93,223.49a2.77,2.77,0,1,0,1-3.79A2.77,2.77,0,0,0,294.93,223.49Zm4-2.37a1.92,1.92,0,1,1-2.62-.69A1.91,1.91,0,0,1,299,221.12Z" style="fill:#050400;opacity:0.2"></path><path d="M294.93,223.49l.73-.43a1.92,1.92,0,1,1,2.63.68,1.9,1.9,0,0,1-.88.26l0,.85a2.64,2.64,0,0,0,1.26-.38,2.76,2.76,0,1,0-3.78-1Z" style="fill:#FF781F"></path><g id="freepik--qdp2mstif--inject-15"><path d="M296.3,221.16l.53.14a.16.16,0,0,1,.12.22c0,.09-.05.18-.07.27l.43.11a2.33,2.33,0,0,1,.07-.25l.06-.25a.12.12,0,0,1,.06-.06l.71-.26a.19.19,0,0,1,.25.1.17.17,0,0,1-.11.24l-.49.2-.05,0c0,.12-.07.24-.1.37l.44.1a.2.2,0,0,1,.09.07c.09.16.18.32.28.48a.2.2,0,0,1,0,.28l-.07,0a.22.22,0,0,1-.25-.14l-.18-.3a.07.07,0,0,0,0,0l-1-.21h0a.13.13,0,0,0,.12.1l.35.08a.17.17,0,0,1,.13.2.16.16,0,0,1-.22.11l-.54-.16s-.05,0-.06,0l-.24-.4a.2.2,0,0,1,0-.17c0-.13,0-.26.09-.39s0-.08-.06-.09l-.29-.08a.15.15,0,0,1-.12-.2A.16.16,0,0,1,296.3,221.16Z" style="fill:#455a64"></path><path d="M296,221.61a.28.28,0,0,1,.28.49.28.28,0,0,1-.38-.1A.29.29,0,0,1,296,221.61Z" style="fill:#455a64"></path></g><polygon points="312.12 216.87 309.07 211.67 301.45 215.23 305.28 221.78 312.12 216.87" style="fill:#FF781F"></polygon><polygon points="301.45 215.24 302.53 214.73 306.34 221.02 305.28 221.78 301.45 215.24" style="fill:#050400;opacity:0.2"></polygon><polygon points="283.1 226.88 286.15 232.08 293.77 228.52 289.94 221.97 283.1 226.88" style="fill:#FF781F"></polygon><polygon points="289.94 221.98 293.77 228.52 292.81 228.97 289 222.66 289.94 221.98" style="fill:#050400;opacity:0.2"></polygon><path d="M298.47,192.44c-.65-1.18-1.31-2.34-2-3.5s-1.58-2.35-2.41-3.52c0,0-.09,0-.06,0,.62,1.2,1.15,2.43,1.82,3.6s1.36,2.4,2,3.63c1.27,2.4,2.65,4.74,3.91,7.15,0,.08.17,0,.14-.07A76.21,76.21,0,0,0,298.47,192.44Z" style="fill:#263238"></path><path d="M311.61,165.59c-.23.18-.45.38-.68.57.87-1.14,1.68-2.31,2.45-3.51,0,0,0-.06-.05,0-1.06,1.22-2.09,2.46-3.08,3.74-.47.61-1,1.2-1.41,1.82s-1,1.42-1.52,2.09c-.07.08.05.19.11.11.52-.64,1.09-1.23,1.63-1.85s.91-1.11,1.35-1.68a5,5,0,0,0,.52-.39c.28-.23.54-.47.8-.72.51-.5,1-1,1.5-1.54h0C312.7,164.68,312.16,165.14,311.61,165.59Z" style="fill:#263238"></path></g></svg>