<svg width="142" height="36" viewBox="0 0 142 36" fill="none" xmlns="http://www.w3.org/2000/svg">
<path d="M13.9319 35.8C12.0324 35.8 10.2618 35.4856 8.62026 34.8568C7.00214 34.2038 5.59508 33.2848 4.39907 32.0998C3.20307 30.9148 2.26503 29.5242 1.58495 27.928C0.928321 26.3319 0.600006 24.5785 0.600006 22.668C0.600006 20.7574 0.928321 19.0041 1.58495 17.4079C2.26503 15.8118 3.20307 14.4212 4.39907 13.2362C5.61853 12.0512 7.03731 11.1443 8.65544 10.5155C10.2736 9.8625 12.0441 9.53601 13.9671 9.53601C16.1011 9.53601 18.0241 9.92296 19.736 10.6969C21.4714 11.4466 21.5066 19.5966 22.6791 21.0718L20.4396 17.5168C19.5953 16.5252 18.6573 15.7876 17.6255 15.3039C16.5936 14.7961 15.468 14.5421 14.2485 14.5421C13.0994 14.5421 12.0441 14.7356 11.0826 15.1225C10.1211 15.5095 9.28861 16.0657 8.58508 16.7913C7.88155 17.5168 7.33045 18.3753 6.93179 19.3669C6.55657 20.3584 6.36896 21.4588 6.36896 22.668C6.36896 23.8772 6.55657 24.9776 6.93179 25.9691C7.33045 26.9607 7.88155 27.8192 8.58508 28.5447C9.28861 29.2703 10.1211 29.8265 11.0826 30.2134C12.0441 30.6004 13.0994 30.7939 14.2485 30.7939C15.468 30.7939 16.5936 30.552 17.6255 30.0683C18.6573 29.5605 19.5953 28.7987 20.4396 27.7829L24.0979 31.2654C22.9254 32.7407 21.4714 33.8652 19.736 34.6391C18.0241 35.413 16.0894 35.8 13.9319 35.8Z" fill="white"/>
<path d="M35.9118 35.6549C33.895 35.6549 32.101 35.2196 30.5298 34.3489C28.982 33.4783 27.7508 32.2933 26.8362 30.7939C25.9451 29.2703 25.4995 27.5411 25.4995 25.6064C25.4995 23.6475 25.9451 21.9183 26.8362 20.4189C27.7508 18.8953 28.982 17.7102 30.5298 16.8638C32.101 15.9932 33.895 15.5579 35.9118 15.5579C37.9051 15.5579 39.6874 15.9932 41.2586 16.8638C42.8298 17.7102 44.061 18.8832 44.9521 20.3826C45.8433 21.882 46.2888 23.6233 46.2888 25.6064C46.2888 27.5411 45.8433 29.2703 44.9521 30.7939C44.061 32.2933 42.8298 33.4783 41.2586 34.3489C39.6874 35.2196 37.9051 35.6549 35.9118 35.6549ZM35.9118 31.0115C36.8264 31.0115 37.6471 30.7939 38.3741 30.3585C39.1011 29.9232 39.6757 29.3065 40.0978 28.5085C40.5199 27.6862 40.731 26.7188 40.731 25.6064C40.731 24.4697 40.5199 23.5023 40.0978 22.7043C39.6757 21.9062 39.1011 21.2895 38.3741 20.8542C37.6471 20.4189 36.8264 20.2012 35.9118 20.2012C34.9972 20.2012 34.1764 20.4189 33.4494 20.8542C32.7224 21.2895 32.1361 21.9062 31.6906 22.7043C31.2685 23.5023 31.0574 24.4697 31.0574 25.6064C31.0574 26.7188 31.2685 27.6862 31.6906 28.5085C32.1361 29.3065 32.7224 29.9232 33.4494 30.3585C34.1764 30.7939 34.9972 31.0115 35.9118 31.0115Z" fill="white"/>
<path d="M61.2559 35.3647V31.5557L60.9042 30.7213V23.9014C60.9042 22.6922 60.5407 21.749 59.8137 21.0718C59.1102 20.3947 58.0197 20.0561 56.5423 20.0561C55.5339 20.0561 54.5372 20.2254 53.5523 20.564C52.5908 20.8784 51.77 21.3137 51.0899 21.8699L49.12 17.9158C50.1519 17.1661 51.3948 16.5857 52.8487 16.1746C54.3027 15.7634 55.7801 15.5579 57.281 15.5579C60.1654 15.5579 62.405 16.2592 63.9997 17.6619C65.5944 19.0646 66.3917 21.2532 66.3917 24.2279V35.3647H61.2559ZM55.487 35.6549C54.0095 35.6549 52.7432 35.4009 51.6879 34.8931C50.6326 34.361 49.8235 33.6476 49.2607 32.7528C48.6979 31.858 48.4165 30.8543 48.4165 29.7419C48.4165 28.581 48.6862 27.5653 49.2255 26.6947C49.7884 25.824 50.6678 25.1469 51.8638 24.6632C53.0598 24.1553 54.6193 23.9014 56.5423 23.9014H61.5725V27.2025H57.1403C55.8505 27.2025 54.9593 27.4202 54.4668 27.8555C53.9978 28.2908 53.7633 28.8349 53.7633 29.4879C53.7633 30.2134 54.033 30.7939 54.5724 31.2292C55.1352 31.6403 55.8974 31.8459 56.8589 31.8459C57.7734 31.8459 58.5942 31.6282 59.3212 31.1929C60.0482 30.7334 60.5758 30.0683 60.9042 29.1977L61.7484 31.8096C61.3497 33.0672 60.6227 34.0224 59.5674 34.6754C58.5121 35.3284 57.152 35.6549 55.487 35.6549Z" fill="white"/>
<path d="M80.6415 35.6549C78.6013 35.6549 76.7838 35.2316 75.1891 34.3852C73.5945 33.5146 72.3398 32.3175 71.4252 30.7939C70.5341 29.2703 70.0885 27.5411 70.0885 25.6064C70.0885 23.6475 70.5341 21.9183 71.4252 20.4189C72.3398 18.8953 73.5945 17.7102 75.1891 16.8638C76.7838 15.9932 78.6013 15.5579 80.6415 15.5579C82.6348 15.5579 84.3702 15.9932 85.8476 16.8638C87.325 17.7102 88.4155 18.9315 89.119 20.5277L84.8627 22.8857C84.3702 21.9667 83.7488 21.2895 82.9983 20.8542C82.2713 20.4189 81.474 20.2012 80.6063 20.2012C79.6683 20.2012 78.824 20.4189 78.0736 20.8542C77.3232 21.2895 76.7252 21.9062 76.2796 22.7043C75.8575 23.5023 75.6464 24.4697 75.6464 25.6064C75.6464 26.743 75.8575 27.7104 76.2796 28.5085C76.7252 29.3065 77.3232 29.9232 78.0736 30.3585C78.824 30.7939 79.6683 31.0115 80.6063 31.0115C81.474 31.0115 82.2713 30.806 82.9983 30.3948C83.7488 29.9595 84.3702 29.2703 84.8627 28.3271L89.119 30.7213C88.4155 32.2933 87.325 33.5146 85.8476 34.3852C84.3702 35.2316 82.6348 35.6549 80.6415 35.6549Z" fill="white"/>
<path d="M103.644 15.5579C105.145 15.5579 106.482 15.8723 107.654 16.501C108.85 17.1056 109.788 18.0488 110.468 19.3306C111.148 20.5882 111.488 22.2085 111.488 24.1916V35.3647H106.001V25.0622C106.001 23.4903 105.661 22.3294 104.981 21.5797C104.324 20.83 103.386 20.4551 102.167 20.4551C101.299 20.4551 100.513 20.6486 99.8097 21.0356C99.1296 21.3983 98.5902 21.9667 98.1916 22.7405C97.8164 23.5144 97.6287 24.506 97.6287 25.7152V35.3647H92.1412V8.44773H97.6287V21.2532L96.3976 19.6208C97.0776 18.3148 98.0509 17.3112 99.3172 16.6099C100.584 15.9085 102.026 15.5579 103.644 15.5579Z" fill="white"/>
<path d="M114.035 35.3647L124.623 20.31V24.5906L114.493 9.97133H120.965L127.965 20.1649L125.257 20.2012L132.151 9.97133L141.4 0.599976L128.282 24.3367V20.1287L138.94 35.3647H132.362L125.116 24.5906H127.719L120.578 35.3647H114.035Z" fill="white"/>
</svg>
